<?xml version="1.0" encoding="utf-8"?>
<!-- Generator: Adobe Illustrator 28.2.0, SVG Export Plug-In . SVG Version: 6.00 Build 0)  -->
<svg version="1.1" id="Capa_1" xmlns="http://www.w3.org/2000/svg" xmlns:xlink="http://www.w3.org/1999/xlink" x="0px" y="0px"
	 viewBox="0 0 235.76 232.71" style="enable-background:new 0 0 235.76 232.71;" xml:space="preserve">
<style type="text/css">
	.st0{fill:#F6A76A;}
	.st1{fill:#010202;}
	.st2{fill:#202020;}
	.st3{fill:#FFFFFF;}
	.st4{fill:#E8E8E8;}
	.st5{fill:#DE9DC5;}
</style>
<rect x="8.45" y="8.45" class="st0" width="221.2" height="221.2"/>
<rect x="8.45" y="8.45" class="st1" width="27.93" height="27.93"/>
<rect x="201.71" y="8.45" class="st1" width="27.93" height="27.93"/>
<rect x="36.38" y="8.45" class="st2" width="27.93" height="27.93"/>
<rect x="8.45" y="36.38" class="st2" width="27.93" height="27.93"/>
<rect x="173.78" y="8.45" class="st2" width="27.93" height="27.93"/>
<rect x="201.71" y="36.38" class="st2" width="27.93" height="27.93"/>
<rect x="64.31" y="36.38" class="st2" width="27.93" height="27.93"/>
<rect x="145.85" y="36.38" class="st2" width="27.93" height="27.93"/>
<rect x="36.38" y="36.38" class="st3" width="27.93" height="27.93"/>
<rect x="173.78" y="36.38" class="st3" width="27.93" height="27.93"/>
<rect x="8.45" y="64.31" class="st2" width="27.93" height="27.93"/>
<rect x="201.71" y="64.31" class="st2" width="27.93" height="27.93"/>
<rect x="36.38" y="64.31" class="st3" width="27.93" height="27.93"/>
<rect x="173.78" y="64.31" class="st3" width="27.93" height="27.93"/>
<rect x="36.38" y="112.35" class="st1" width="27.93" height="47.36"/>
<rect x="173.78" y="113.11" class="st1" width="27.93" height="46.61"/>
<rect x="8.45" y="177.33" class="st4" width="221.2" height="52.32"/>
<rect x="74.24" y="163.36" class="st1" width="89.62" height="27.93"/>
<rect x="173.78" y="159.71" class="st5" width="27.93" height="27.93"/>
<rect x="36.38" y="159.71" class="st5" width="27.93" height="27.93"/>
</svg>
