<?xml version="1.0" encoding="utf-8"?>
<!-- Generator: Adobe Illustrator 28.2.0, SVG Export Plug-In . SVG Version: 6.00 Build 0)  -->
<svg version="1.1" id="Capa_1" xmlns="http://www.w3.org/2000/svg" xmlns:xlink="http://www.w3.org/1999/xlink" x="0px" y="0px"
	 viewBox="0 0 193.88 205.41" style="enable-background:new 0 0 193.88 205.41;" xml:space="preserve">
<style type="text/css">
	.st0{fill:none;stroke:#DD0B15;stroke-miterlimit:10;}
</style>
<polygon class="st0" points="92.86,56.57 143.56,29.91 133.88,86.37 174.9,126.36 118.21,134.6 92.86,185.97 67.5,134.6 
	10.81,126.36 51.83,86.37 42.15,29.91 "/>
<polygon class="st0" points="99.85,57.04 153.71,37.53 136.43,92.15 171.64,137.35 114.35,137.8 82.24,185.24 64.11,130.9 
	9.07,115.03 55.15,80.99 53.24,23.74 "/>
<polygon class="st0" points="110.61,59.73 167.41,52.24 138.81,101.88 163.48,153.58 107.44,141.72 65.89,181.16 59.85,124.19 
	9.5,96.87 61.81,73.52 72.24,17.19 "/>
<polygon class="st0" points="121.99,65.63 178.87,72.43 138.88,113.44 149.99,169.64 98.62,144.27 48.61,172.21 56.86,115.52 
	14.83,76.58 71.3,66.91 95.34,14.91 "/>
<polygon class="st0" points="133.78,76.89 185.67,101.18 134.83,127.59 127.77,184.44 86.94,144.25 30.69,155.1 56.3,103.85 
	28.59,53.71 85.25,62.22 124.38,20.38 "/>
<polygon class="st0" points="139.24,85.85 185.11,120.17 129.97,135.7 111.5,189.93 79.69,142.29 22.41,141.49 57.89,96.51 
	40.95,41.78 94.69,61.63 141.5,28.61 "/>
</svg>
